<svg width="284" height="100" viewBox="0 0 284 100" fill="none" xmlns="http://www.w3.org/2000/svg">
<rect width="110" height="100" rx="4" fill="white" fill-opacity="0.5"/>
<rect x="10" y="10" width="40" height="80" rx="4" fill="#2D9CDB"/>
<rect x="60" y="10" width="40" height="50" rx="4" fill="#2D9CDB"/>
<path d="M168.672 68.793C168.672 70.3867 168.566 71.7461 168.355 72.8711C168.168 73.9961 167.898 74.9102 167.547 75.6133C167.195 76.3164 166.762 76.832 166.246 77.1602C165.754 77.4883 165.215 77.6523 164.629 77.6523C164.184 77.6523 163.691 77.5 163.152 77.1953C162.613 76.8906 162.098 76.5156 161.605 76.0703C161.137 75.625 160.738 75.168 160.41 74.6992C160.105 74.2305 159.953 73.8203 159.953 73.4688C159.953 73.2344 159.977 73.082 160.023 73.0117C160.094 72.9648 160.176 72.9414 160.27 72.9414C160.387 72.9648 160.516 73 160.656 73.0469C160.82 73.0938 160.996 73.1172 161.184 73.1172C161.84 73.1172 162.309 72.707 162.59 71.8867C162.895 71.043 163.047 69.707 163.047 67.8789V28.1172C160.82 28.3047 158.676 28.7031 156.613 29.3125C154.551 29.8984 152.734 30.7891 151.164 31.9844C149.594 33.1797 148.34 34.7383 147.402 36.6602C146.465 38.5586 145.996 40.9023 145.996 43.6914C145.996 44.9336 146.113 46.0586 146.348 47.0664C146.605 48.0508 146.934 48.9414 147.332 49.7383C147.73 50.5352 148.164 51.2383 148.633 51.8477C149.125 52.457 149.605 52.9961 150.074 53.4648C150.473 53.3477 150.754 53.3945 150.918 53.6055C151.082 53.8164 151.164 54.1094 151.164 54.4844C151.164 54.9531 151.059 55.4453 150.848 55.9609C150.66 56.4531 150.402 56.9102 150.074 57.332C149.746 57.7305 149.371 58.0703 148.949 58.3516C148.551 58.6094 148.141 58.7383 147.719 58.7383C147.531 58.7383 147.344 58.7148 147.156 58.668C146.992 58.6211 146.816 58.5156 146.629 58.3516C146.113 57.9766 145.492 57.3672 144.766 56.5234C144.039 55.6562 143.348 54.5898 142.691 53.3242C142.035 52.0586 141.473 50.6172 141.004 49C140.535 47.3594 140.301 45.5898 140.301 43.6914C140.301 40.2227 140.945 37.1641 142.234 34.5156C143.523 31.8672 145.316 29.6523 147.613 27.8711C149.91 26.0664 152.629 24.707 155.77 23.793C158.934 22.8789 162.391 22.4219 166.141 22.4219C167.008 22.4219 168.051 22.4336 169.27 22.457C170.512 22.457 171.742 22.4688 172.961 22.4922C174.18 22.5156 175.27 22.5391 176.23 22.5625C177.215 22.5625 177.883 22.5625 178.234 22.5625C178.539 22.5625 178.785 22.5391 178.973 22.4922C179.184 22.4219 179.348 22.3516 179.465 22.2812C179.605 22.2109 179.711 22.1523 179.781 22.1055C179.852 22.0352 179.91 22 179.957 22C180.074 22 180.18 22.082 180.273 22.2461C180.391 22.3867 180.484 22.5742 180.555 22.8086C180.648 23.0195 180.719 23.2656 180.766 23.5469C180.812 23.8281 180.836 24.1094 180.836 24.3906C180.836 24.8125 180.777 25.2578 180.66 25.7266C180.543 26.1719 180.367 26.582 180.133 26.957C179.898 27.3086 179.605 27.6016 179.254 27.8359C178.902 28.0703 178.492 28.1875 178.023 28.1875C177.766 28.1875 177.285 28.1875 176.582 28.1875C175.902 28.1641 175.117 28.1406 174.227 28.1172C173.336 28.0938 172.398 28.0703 171.414 28.0469C170.43 28.0234 169.516 28 168.672 27.9766V68.793Z" fill="#96CEED"/>
<path d="M193.141 74.8398C192.297 74.8398 191.43 74.7109 190.539 74.4531C189.672 74.1953 188.875 73.75 188.148 73.1172C187.445 72.4844 186.859 71.6523 186.391 70.6211C185.945 69.5664 185.723 68.2422 185.723 66.6484C185.723 64.3281 186.027 61.8789 186.637 59.3008C187.27 56.6992 188.172 53.8398 189.344 50.7227H183.859H183.051C183.027 51.4258 182.98 52.3164 182.91 53.3945C182.863 54.4727 182.77 55.6211 182.629 56.8398C182.488 58.0586 182.301 59.2891 182.066 60.5312C181.855 61.7734 181.586 62.9219 181.258 63.9766C181.023 64.7266 180.648 65.1602 180.133 65.2773C179.641 65.3945 179.148 65.3125 178.656 65.0312C178.164 64.7266 177.766 64.293 177.461 63.7305C177.156 63.168 177.086 62.582 177.25 61.9727C177.438 61.2461 177.602 60.3672 177.742 59.3359C177.883 58.2812 177.988 57.1797 178.059 56.0312C178.152 54.8594 178.223 53.6992 178.27 52.5508C178.316 51.3789 178.352 50.3359 178.375 49.4219C177.484 48.9297 176.746 48.3086 176.16 47.5586C175.574 46.7852 175.281 45.8711 175.281 44.8164C175.281 44.3242 175.375 43.8789 175.562 43.4805C175.773 43.0586 176.043 42.707 176.371 42.4258C176.699 42.1211 177.086 41.8984 177.531 41.7578C177.977 41.5938 178.434 41.5117 178.902 41.5117C179.324 41.5117 179.758 41.5703 180.203 41.6875C180.672 41.8047 181.105 42.0156 181.504 42.3203C181.926 42.625 182.301 43.0234 182.629 43.5156C182.957 44.0078 183.227 44.6172 183.438 45.3438C184.023 45.4141 184.516 45.4727 184.914 45.5195C185.336 45.543 185.688 45.5664 185.969 45.5898C186.25 45.6133 186.484 45.625 186.672 45.625C186.859 45.625 187.047 45.625 187.234 45.625H190.996C191.207 45.625 191.512 45.7539 191.91 46.0117C192.332 46.2695 192.742 46.6094 193.141 47.0312C193.539 47.4297 193.867 47.8633 194.125 48.332C194.406 48.8008 194.512 49.2461 194.441 49.668C194.441 49.8086 194.359 50.1484 194.195 50.6875C194.031 51.2266 193.832 51.9062 193.598 52.7266C193.363 53.5469 193.105 54.4961 192.824 55.5742C192.543 56.6289 192.285 57.7422 192.051 58.9141C191.816 60.0859 191.617 61.3047 191.453 62.5703C191.289 63.8125 191.207 65.0312 191.207 66.2266C191.207 66.7188 191.266 67.1992 191.383 67.668C191.5 68.1367 191.676 68.5586 191.91 68.9336C192.145 69.2852 192.438 69.5664 192.789 69.7773C193.164 69.9883 193.598 70.0938 194.09 70.0938C194.91 70.0938 195.613 69.8359 196.199 69.3203C196.785 68.8047 197.277 68.1602 197.676 67.3867C198.074 66.6133 198.391 65.7812 198.625 64.8906C198.883 63.9766 199.094 63.1211 199.258 62.3242C199.398 61.5742 199.633 61.0352 199.961 60.707C200.289 60.3555 200.629 60.1797 200.98 60.1797C201.262 60.1797 201.555 60.2734 201.859 60.4609C202.164 60.625 202.434 60.8477 202.668 61.1289C202.926 61.4102 203.125 61.7266 203.266 62.0781C203.43 62.4297 203.512 62.7812 203.512 63.1328C203.512 63.25 203.5 63.3438 203.477 63.4141C203.453 63.4844 203.441 63.5547 203.441 63.625C203.113 64.8203 202.68 66.0742 202.141 67.3867C201.625 68.6992 200.957 69.9062 200.137 71.0078C199.316 72.1094 198.332 73.0234 197.184 73.75C196.035 74.4766 194.688 74.8398 193.141 74.8398Z" fill="#96CEED"/>
<path d="M216.168 51.8828C216.168 53.2188 215.934 54.5898 215.465 55.9961C215.02 57.4023 214.34 58.7383 213.426 60.0039C212.535 61.2461 211.422 62.3711 210.086 63.3789C208.773 64.3633 207.25 65.1133 205.516 65.6289C205.75 66.2383 206.055 66.8242 206.43 67.3867C206.828 67.9258 207.297 68.3945 207.836 68.793C208.375 69.1914 208.996 69.5078 209.699 69.7422C210.426 69.9766 211.258 70.0938 212.195 70.0938C213.602 70.0938 214.809 69.8359 215.816 69.3203C216.824 68.7812 217.668 68.0781 218.348 67.2109C219.051 66.3438 219.613 65.3711 220.035 64.293C220.457 63.2148 220.773 62.125 220.984 61.0234C221.148 60.2266 221.477 59.6992 221.969 59.4414C222.484 59.1602 223 59.0898 223.516 59.2305C224.055 59.3711 224.512 59.6758 224.887 60.1445C225.285 60.5898 225.449 61.1289 225.379 61.7617C225.285 62.4883 225.121 63.3203 224.887 64.2578C224.676 65.1953 224.348 66.1445 223.902 67.1055C223.457 68.0664 222.883 69.0156 222.18 69.9531C221.5 70.8672 220.656 71.6875 219.648 72.4141C218.641 73.1406 217.457 73.7266 216.098 74.1719C214.738 74.6172 213.18 74.8398 211.422 74.8398C209.781 74.8398 208.188 74.5117 206.641 73.8555C205.117 73.2227 203.758 72.3086 202.562 71.1133C201.391 69.8945 200.441 68.4062 199.715 66.6484C199.012 64.8672 198.66 62.8516 198.66 60.6016C198.66 58.3281 198.977 56.2188 199.609 54.2734C200.242 52.3047 201.074 50.6055 202.105 49.1758C203.137 47.7461 204.309 46.6328 205.621 45.8359C206.934 45.0156 208.281 44.6055 209.664 44.6055C210.672 44.6055 211.574 44.7812 212.371 45.1328C213.191 45.4844 213.883 45.9883 214.445 46.6445C215.008 47.2773 215.43 48.0391 215.711 48.9297C216.016 49.8203 216.168 50.8047 216.168 51.8828ZM204.566 60.3906C204.566 60.6016 204.578 60.8125 204.602 61.0234C204.625 61.2344 204.637 61.457 204.637 61.6914C205.527 61.2695 206.336 60.7305 207.062 60.0742C207.789 59.418 208.41 58.668 208.926 57.8242C209.441 56.9805 209.84 56.0664 210.121 55.082C210.402 54.0742 210.543 53.0312 210.543 51.9531C210.543 51.1562 210.402 50.5352 210.121 50.0898C209.863 49.6445 209.5 49.4219 209.031 49.4219C208.445 49.4219 207.918 49.6211 207.449 50.0195C207.004 50.418 206.605 50.9453 206.254 51.6016C205.926 52.2344 205.645 52.9609 205.41 53.7812C205.199 54.5781 205.023 55.3867 204.883 56.207C204.742 57.0273 204.648 57.8125 204.602 58.5625C204.555 59.2891 204.543 59.8984 204.566 60.3906Z" fill="#96CEED"/>
<path d="M226.434 51.5312C226.691 51.0391 226.938 50.3828 227.172 49.5625C227.43 48.7188 227.664 47.793 227.875 46.7852C228.109 45.7773 228.32 44.7227 228.508 43.6211C228.695 42.5195 228.859 41.4414 229 40.3867C229.141 39.332 229.246 38.3477 229.316 37.4336C229.41 36.4961 229.457 35.6992 229.457 35.043C229.457 32.6523 229.281 30.9062 228.93 29.8047C228.578 28.6797 228.109 28.1172 227.523 28.1172C227.336 28.1172 227.172 28.2109 227.031 28.3984C226.891 28.5859 226.773 28.832 226.68 29.1367C226.586 29.418 226.516 29.7344 226.469 30.0859C226.445 30.4141 226.434 30.7188 226.434 31V51.5312ZM236.664 62.3945C236.805 61.6914 237.016 61.1875 237.297 60.8828C237.602 60.5547 237.918 60.3789 238.246 60.3555C238.598 60.3086 238.949 60.3906 239.301 60.6016C239.652 60.7891 239.957 61.0469 240.215 61.375C240.473 61.7031 240.66 62.0781 240.777 62.5C240.918 62.8984 240.941 63.2969 240.848 63.6953C240.52 64.6562 240.051 65.7812 239.441 67.0703C238.832 68.3594 238.059 69.5781 237.121 70.7266C236.184 71.875 235.082 72.8477 233.816 73.6445C232.551 74.4414 231.098 74.8398 229.457 74.8398C228.074 74.8398 226.855 74.6055 225.801 74.1367C224.746 73.6914 223.855 73.0586 223.129 72.2383C222.426 71.3945 221.887 70.3984 221.512 69.25C221.16 68.0781 220.984 66.7773 220.984 65.3477V32.582C220.984 31.2461 221.148 30.0156 221.477 28.8906C221.828 27.7422 222.297 26.7695 222.883 25.9727C223.492 25.1523 224.195 24.5195 224.992 24.0742C225.789 23.6055 226.633 23.3711 227.523 23.3711C228.578 23.3711 229.469 23.5703 230.195 23.9688C230.922 24.3438 231.52 24.8477 231.988 25.4805C232.457 26.1133 232.82 26.8398 233.078 27.6602C233.359 28.4805 233.559 29.3242 233.676 30.1914C233.793 31.0352 233.863 31.8789 233.887 32.7227C233.91 33.543 233.922 34.293 233.922 34.9727C233.922 36.7305 233.758 38.582 233.43 40.5273C233.102 42.4492 232.68 44.3477 232.164 46.2227C231.672 48.0977 231.121 49.9023 230.512 51.6367C229.926 53.3477 229.352 54.8711 228.789 56.207C228.25 57.543 227.758 58.6328 227.312 59.4766C226.891 60.3203 226.598 60.8125 226.434 60.9531V65.1367C226.434 66.5898 226.738 67.7852 227.348 68.7227C227.957 69.6367 228.93 70.0938 230.266 70.0938C231.086 70.0938 231.848 69.8477 232.551 69.3555C233.277 68.8398 233.91 68.207 234.449 67.457C235.012 66.6836 235.48 65.8516 235.855 64.9609C236.23 64.0469 236.5 63.1914 236.664 62.3945Z" fill="#96CEED"/>
<path d="M242.324 51.5312C242.582 51.0391 242.828 50.3828 243.062 49.5625C243.32 48.7188 243.555 47.793 243.766 46.7852C244 45.7773 244.211 44.7227 244.398 43.6211C244.586 42.5195 244.75 41.4414 244.891 40.3867C245.031 39.332 245.137 38.3477 245.207 37.4336C245.301 36.4961 245.348 35.6992 245.348 35.043C245.348 32.6523 245.172 30.9062 244.82 29.8047C244.469 28.6797 244 28.1172 243.414 28.1172C243.227 28.1172 243.062 28.2109 242.922 28.3984C242.781 28.5859 242.664 28.832 242.57 29.1367C242.477 29.418 242.406 29.7344 242.359 30.0859C242.336 30.4141 242.324 30.7188 242.324 31V51.5312ZM252.555 62.3945C252.695 61.6914 252.906 61.1875 253.188 60.8828C253.492 60.5547 253.809 60.3789 254.137 60.3555C254.488 60.3086 254.84 60.3906 255.191 60.6016C255.543 60.7891 255.848 61.0469 256.105 61.375C256.363 61.7031 256.551 62.0781 256.668 62.5C256.809 62.8984 256.832 63.2969 256.738 63.6953C256.41 64.6562 255.941 65.7812 255.332 67.0703C254.723 68.3594 253.949 69.5781 253.012 70.7266C252.074 71.875 250.973 72.8477 249.707 73.6445C248.441 74.4414 246.988 74.8398 245.348 74.8398C243.965 74.8398 242.746 74.6055 241.691 74.1367C240.637 73.6914 239.746 73.0586 239.02 72.2383C238.316 71.3945 237.777 70.3984 237.402 69.25C237.051 68.0781 236.875 66.7773 236.875 65.3477V32.582C236.875 31.2461 237.039 30.0156 237.367 28.8906C237.719 27.7422 238.188 26.7695 238.773 25.9727C239.383 25.1523 240.086 24.5195 240.883 24.0742C241.68 23.6055 242.523 23.3711 243.414 23.3711C244.469 23.3711 245.359 23.5703 246.086 23.9688C246.812 24.3438 247.41 24.8477 247.879 25.4805C248.348 26.1133 248.711 26.8398 248.969 27.6602C249.25 28.4805 249.449 29.3242 249.566 30.1914C249.684 31.0352 249.754 31.8789 249.777 32.7227C249.801 33.543 249.812 34.293 249.812 34.9727C249.812 36.7305 249.648 38.582 249.32 40.5273C248.992 42.4492 248.57 44.3477 248.055 46.2227C247.562 48.0977 247.012 49.9023 246.402 51.6367C245.816 53.3477 245.242 54.8711 244.68 56.207C244.141 57.543 243.648 58.6328 243.203 59.4766C242.781 60.3203 242.488 60.8125 242.324 60.9531V65.1367C242.324 66.5898 242.629 67.7852 243.238 68.7227C243.848 69.6367 244.82 70.0938 246.156 70.0938C246.977 70.0938 247.738 69.8477 248.441 69.3555C249.168 68.8398 249.801 68.207 250.34 67.457C250.902 66.6836 251.371 65.8516 251.746 64.9609C252.121 64.0469 252.391 63.1914 252.555 62.3945Z" fill="#96CEED"/>
<path d="M279.098 60.9531C279.145 60.6719 279.297 60.4375 279.555 60.25C279.836 60.0625 280.152 59.9336 280.504 59.8633C280.855 59.793 281.219 59.793 281.594 59.8633C281.992 59.9336 282.332 60.0977 282.613 60.3555C282.918 60.5898 283.129 60.9297 283.246 61.375C283.387 61.7969 283.375 62.3477 283.211 63.0273C283 64.0117 282.648 64.9375 282.156 65.8047C281.688 66.6484 281.09 67.3984 280.363 68.0547C279.637 68.7109 278.781 69.2266 277.797 69.6016C276.812 69.9766 275.711 70.1641 274.492 70.1641C273.836 70.1641 273.215 70.1289 272.629 70.0586C272.066 69.9883 271.516 69.8594 270.977 69.6719C270.086 71.2188 268.938 72.4609 267.531 73.3984C266.125 74.3594 264.391 74.8398 262.328 74.8398C260.5 74.8398 258.93 74.4766 257.617 73.75C256.305 73.0469 255.215 72.0859 254.348 70.8672C253.48 69.625 252.836 68.1953 252.414 66.5781C252.016 64.9609 251.816 63.25 251.816 61.4453C251.816 58.7969 252.121 56.4297 252.73 54.3438C253.363 52.2344 254.09 50.4531 254.91 49C255.73 47.5234 256.539 46.3984 257.336 45.625C258.156 44.8516 258.766 44.4648 259.164 44.4648C259.633 44.4648 260.055 44.6758 260.43 45.0977C260.828 45.4961 261.109 45.9766 261.273 46.5391C261.461 47.0781 261.508 47.6289 261.414 48.1914C261.344 48.7539 261.074 49.1875 260.605 49.4922C260.324 49.9375 259.984 50.4531 259.586 51.0391C259.211 51.625 258.848 52.3633 258.496 53.2539C258.168 54.1211 257.887 55.1875 257.652 56.4531C257.418 57.7188 257.301 59.2422 257.301 61.0234C257.301 62.5469 257.43 63.8711 257.688 64.9961C257.969 66.1211 258.344 67.0703 258.812 67.8438C259.305 68.5938 259.855 69.1562 260.465 69.5312C261.098 69.9062 261.766 70.0938 262.469 70.0938C263.5 70.0938 264.344 69.8477 265 69.3555C265.68 68.8398 266.254 68.1719 266.723 67.3516C265.035 65.8984 263.746 64.0586 262.855 61.832C261.988 59.582 261.555 57.1562 261.555 54.5547C261.555 53.4297 261.672 52.3633 261.906 51.3555C262.164 50.3242 262.527 49.4219 262.996 48.6484C263.488 47.875 264.098 47.2656 264.824 46.8203C265.551 46.3516 266.395 46.1172 267.355 46.1172C268.199 46.1172 268.996 46.4219 269.746 47.0312C270.496 47.6406 271.152 48.4844 271.715 49.5625C272.277 50.6406 272.711 51.918 273.016 53.3945C273.344 54.8711 273.508 56.4766 273.508 58.2109C273.508 59.5469 273.426 60.8711 273.262 62.1836C273.098 63.4961 272.84 64.7617 272.488 65.9805C272.746 66.0742 272.98 66.1328 273.191 66.1562C273.426 66.1562 273.672 66.1562 273.93 66.1562C274.703 66.1562 275.383 66.0156 275.969 65.7344C276.578 65.4531 277.094 65.0781 277.516 64.6094C277.938 64.1406 278.277 63.5898 278.535 62.957C278.793 62.3242 278.98 61.6562 279.098 60.9531ZM265.352 54.2734C265.352 55.8906 265.598 57.4258 266.09 58.8789C266.605 60.332 267.273 61.5977 268.094 62.6758C268.234 61.5273 268.305 60.4258 268.305 59.3711C268.305 58.1523 268.281 57.0273 268.234 55.9961C268.211 54.9414 268.129 54.0391 267.988 53.2891C267.871 52.5391 267.695 51.9531 267.461 51.5312C267.25 51.0859 266.957 50.8633 266.582 50.8633C265.762 50.8633 265.352 52 265.352 54.2734Z" fill="#96CEED"/>
</svg>
