<svg width="50" height="50" viewBox="0 0 50 50" fill="none" xmlns="http://www.w3.org/2000/svg">
<rect x="-0.000244141" width="50" height="50" rx="4" fill="#2D9CDB"/>
<path fill-rule="evenodd" clip-rule="evenodd" d="M9.99976 14.5C9.99976 13.1193 11.119 12 12.4998 12H34.4998C35.8805 12 36.9998 13.1193 36.9998 14.5C36.9998 15.8807 35.8805 17 34.4998 17H12.4998C11.119 17 9.99976 15.8807 9.99976 14.5Z" fill="white"/>
<path fill-rule="evenodd" clip-rule="evenodd" d="M9.99976 24.5C9.99976 23.1193 11.119 22 12.4998 22H29.4998C30.8805 22 31.9998 23.1193 31.9998 24.5C31.9998 25.8807 30.8805 27 29.4998 27H12.4998C11.119 27 9.99976 25.8807 9.99976 24.5Z" fill="white"/>
<path fill-rule="evenodd" clip-rule="evenodd" d="M9.99976 34.5C9.99976 33.1193 11.119 32 12.4998 32H37.4998C38.8805 32 39.9998 33.1193 39.9998 34.5C39.9998 35.8807 38.8805 37 37.4998 37H12.4998C11.119 37 9.99976 35.8807 9.99976 34.5Z" fill="white"/>
</svg>
