<svg width="37" height="36" viewBox="0 0 37 36" fill="none" xmlns="http://www.w3.org/2000/svg">
<path d="M21.8789 24.2136C21.8789 23.8747 21.5666 23.6673 21.1849 23.7526C21.1849 23.7526 19.3974 24.1516 18.0781 24.1516C16.7589 24.1516 14.9713 23.7526 14.9713 23.7526C14.5896 23.6673 14.2773 23.8747 14.2773 24.2136V26.0001C14.2773 26.3389 14.6001 26.6161 14.9944 26.6161H21.1619C21.5563 26.6161 21.8789 26.3388 21.8789 26.0001V24.2136Z" fill="#979797"/>
<path d="M28.9787 1.23228C28.9787 0.551809 28.3364 0 27.5444 0H8.61207C7.82002 0 7.17773 0.551809 7.17773 1.23228V11.3981C7.17773 14.5801 8.27932 17.4765 10.2795 19.5537C12.2928 21.6446 15.0625 22.7962 18.0782 22.7962C21.0939 22.7962 23.8636 21.6447 25.877 19.5537C27.8771 17.4765 28.9787 14.5801 28.9787 11.3981V1.23228V1.23228Z" fill="#979797"/>
<path d="M5.81302 13.867C3.85031 13.2396 2.94652 11.7842 2.94652 9.36493V3.86092H5.59999V1.39648H1.51247C0.72027 1.39648 0.078125 1.94817 0.078125 2.62877V9.3648C0.078125 13.4742 2.36924 15.9774 6.582 16.5621C6.23589 15.707 5.97671 14.8048 5.81302 13.867Z" fill="#979797"/>
<path d="M8.61207 27.436C7.82002 27.436 7.17773 27.9877 7.17773 28.6683V34.7678C7.17773 35.4482 7.82002 36 8.61207 36H27.5445C28.3366 36 28.9789 35.4482 28.9789 34.7678V28.6683C28.9789 27.9877 28.3366 27.436 27.5445 27.436H8.61207Z" fill="#979797"/>
<path d="M34.6439 1.39648H30.5562V3.86092H33.2097V9.3648C33.2097 11.7841 32.3059 13.2394 30.3432 13.8669C30.1795 14.8047 29.9205 15.707 29.5742 16.5621C33.787 15.9774 36.0781 13.4742 36.0781 9.3648V2.62877C36.0782 1.94817 35.4361 1.39648 34.6439 1.39648Z" fill="#979797"/>
</svg>
