<svg width="30" height="34" viewBox="0 0 30 34" fill="none" xmlns="http://www.w3.org/2000/svg">
<path fill-rule="evenodd" clip-rule="evenodd" d="M4.6836 8.11088C1.7991 10.8446 0 14.7122 0 19C0 27.2843 6.71573 34 15 34C23.2843 34 30 27.2843 30 19C30 10.7157 23.2843 4 15 4C14.8689 4 14.7382 4.00168 14.6079 4.00503L13.1832 6.12594C13.7769 6.04292 14.3834 6 15 6C22.1797 6 28 11.8203 28 19C28 26.1797 22.1797 32 15 32C7.8203 32 2 26.1797 2 19C2 15.1217 3.69827 11.6401 6.39173 9.25826L4.6836 8.11088Z" fill="#979797"/>
<path d="M12.6655 8.42605L9.07625 6.05591L11.267 1.99999" stroke="#979797" stroke-width="2" stroke-linecap="round"/>
<path d="M15 5C13 5 9.5 5.5 9.5 5.5" stroke="#979797" stroke-width="2"/>
</svg>
